<svg width="32" height="32" viewBox="0 0 32 32" fill="none" xmlns="http://www.w3.org/2000/svg">
<path d="M16 8.32C14.481 8.32 12.9962 8.77042 11.7332 9.61431C10.4703 10.4582 9.48589 11.6577 8.90461 13.061C8.32332 14.4643 8.17124 16.0085 8.46757 17.4983C8.7639 18.9881 9.49535 20.3565 10.5694 21.4306C11.6435 22.5046 13.0119 23.2361 14.5017 23.5324C15.9915 23.8288 17.5357 23.6767 18.939 23.0954C20.3423 22.5141 21.5418 21.5297 22.3857 20.2668C23.2296 19.0038 23.68 17.519 23.68 16C23.68 13.9631 22.8709 12.0097 21.4306 10.5694C19.9903 9.12914 18.0369 8.32 16 8.32ZM16 21.12C14.9874 21.12 13.9975 20.8197 13.1555 20.2571C12.3135 19.6945 11.6573 18.8949 11.2697 17.9593C10.8822 17.0238 10.7808 15.9943 10.9784 15.0011C11.1759 14.008 11.6636 13.0957 12.3796 12.3796C13.0957 11.6636 14.008 11.1759 15.0011 10.9784C15.9943 10.7808 17.0238 10.8822 17.9593 11.2697C18.8949 11.6573 19.6945 12.3135 20.2571 13.1555C20.8197 13.9975 21.12 14.9874 21.12 16C21.1158 17.3566 20.575 18.6565 19.6157 19.6157C18.6565 20.575 17.3566 21.1158 16 21.12ZM23.04 0H8.96C6.58366 0 4.30465 0.943997 2.62432 2.62432C0.943997 4.30465 0 6.58366 0 8.96V23.04C0 25.4163 0.943997 27.6954 2.62432 29.3757C4.30465 31.056 6.58366 32 8.96 32H23.04C25.4163 32 27.6954 31.056 29.3757 29.3757C31.056 27.6954 32 25.4163 32 23.04V8.96C32 6.58366 31.056 4.30465 29.3757 2.62432C27.6954 0.943997 25.4163 0 23.04 0ZM29.44 23.04C29.44 23.8805 29.2745 24.7127 28.9528 25.4892C28.6312 26.2657 28.1598 26.9712 27.5655 27.5655C26.9712 28.1598 26.2657 28.6312 25.4892 28.9528C24.7127 29.2745 23.8805 29.44 23.04 29.44H8.96C8.11954 29.44 7.28731 29.2745 6.51083 28.9528C5.73434 28.6312 5.02881 28.1598 4.43452 27.5655C3.84022 26.9712 3.3688 26.2657 3.04717 25.4892C2.72554 24.7127 2.56 23.8805 2.56 23.04V8.96C2.56 7.26261 3.23428 5.63475 4.43452 4.43452C5.63475 3.23428 7.26261 2.56 8.96 2.56H23.04C23.8805 2.56 24.7127 2.72554 25.4892 3.04717C26.2657 3.3688 26.9712 3.84022 27.5655 4.43452C28.1598 5.02881 28.6312 5.73434 28.9528 6.51083C29.2745 7.28731 29.44 8.11954 29.44 8.96V23.04ZM26.24 7.68C26.24 8.05974 26.1274 8.43095 25.9164 8.74669C25.7054 9.06244 25.4056 9.30853 25.0548 9.45385C24.7039 9.59917 24.3179 9.63719 23.9454 9.56311C23.573 9.48902 23.2309 9.30616 22.9624 9.03765C22.6938 8.76913 22.511 8.42702 22.4369 8.05457C22.3628 7.68213 22.4008 7.29608 22.5462 6.94525C22.6915 6.59441 22.9376 6.29455 23.2533 6.08358C23.569 5.87261 23.9403 5.76 24.32 5.76C24.8292 5.76 25.3176 5.96228 25.6776 6.32235C26.0377 6.68242 26.24 7.17078 26.24 7.68Z" fill="black"/>
</svg>
